<svg id="Слой_1" data-name="Слой 1" xmlns="http://www.w3.org/2000/svg" viewBox="0 0 200 200"><defs><style>.cls-1{fill:none;stroke:#000;stroke-miterlimit:10;stroke-width:6px;}</style></defs><title>git_b</title><circle class="cls-1" cx="99.97" cy="100" r="94.37"/><path d="M100,193.34c-23,0-22.37-2.14-22.37-4.56,0-2.18-.09-9.4-.13-17.05-25.43,5.54-30.79-10.8-30.79-10.8-4.16-10.58-10.15-13.4-10.15-13.4-8.3-5.68.62-5.56.62-5.56,9.18.64,14,9.43,14,9.43,8.16,14,21.39,9.95,26.6,7.61.82-5.91,3.19-9.95,5.81-12.24C63.29,144.45,42,136.6,42,101.52a35.44,35.44,0,0,1,9.42-24.58c-1-2.3-4.08-11.61.89-24.23,0,0,7.67-2.46,25.14,9.39a86.53,86.53,0,0,1,45.78,0c17.44-11.85,25.11-9.39,25.11-9.39,5,12.62,1.84,21.93.9,24.23a35.43,35.43,0,0,1,9.4,24.58c0,35.17-21.38,42.91-41.74,45.18,3.28,2.84,6.2,8.41,6.2,17,0,4.6.21,8.23.19,15.58,0,10.24,5,13.48-23.24,14.11"/><path d="M43.49,146.2c-.2.46-.92.59-1.57.28s-1-.92-.82-1.37.92-.6,1.58-.29,1,.93.81,1.38Z"/><path d="M47.19,150.34c-.43.4-1.28.22-1.86-.42a1.41,1.41,0,0,1-.27-1.91c.45-.4,1.28-.21,1.87.43s.72,1.49.26,1.9Z"/><path d="M50.8,155.61c-.56.39-1.48,0-2-.79s-.57-1.79,0-2.18,1.47,0,2,.77.56,1.8,0,2.2Z"/><path d="M55.74,160.71c-.51.55-1.57.4-2.35-.35a1.81,1.81,0,0,1-.52-2.34c.48-.55,1.58-.4,2.36.35A1.79,1.79,0,0,1,55.74,160.71Z"/><path d="M62.55,163.66c-.22.72-1.25,1.05-2.29.74s-1.71-1.15-1.5-1.88,1.25-1.06,2.29-.73S62.76,162.93,62.55,163.66Z"/><path d="M70,164.21c0,.76-.85,1.38-1.94,1.4s-2-.59-2-1.33.86-1.38,2-1.4,2,.58,2,1.33Z"/><path d="M77,163c.13.73-.63,1.49-1.71,1.69a1.75,1.75,0,0,1-2.17-1c-.17-.74.63-1.51,1.69-1.71A1.8,1.8,0,0,1,77,163Z"/></svg>
