<svg id="Слой_1" data-name="Слой 1" xmlns="http://www.w3.org/2000/svg" viewBox="0 0 200 200"><defs><style>.cls-1{fill:none;stroke:#000;stroke-miterlimit:10;stroke-width:6px;}.cls-2{fill:#020202;}</style></defs><title>stack_b</title><circle class="cls-1" cx="100" cy="100" r="94.37"/><path class="cls-2" d="M124.4,115.26,73.69,103l2.46-10.14,50.71,12.29-2.46,10.14"/><path class="cls-2" d="M127.8,103.13,81.34,79.39l4.74-9.29,46.46,23.74-4.74,9.29"/><path class="cls-2" d="M135,90.57,95.66,56.24l6.87-7.86,39.29,34.33L135,90.57"/><path class="cls-2" d="M145.76,79.52l-29.3-43.17,8.64-5.86,29.29,43.17-8.63,5.86"/><path class="cls-2" d="M123.59,128l-52.1-2.85.57-10.42,52.09,2.85L123.59,128"/><path class="cls-2" d="M134.39,152.49V109.26h10.42v53.67H50.52V109.22H61v43.27h73.44"/><path class="cls-2" d="M71.35,131.66h52.52V142.1H71.35Z"/></svg>