<svg id="Слой_1" data-name="Слой 1" xmlns="http://www.w3.org/2000/svg" viewBox="0 0 200 200"><defs><style>.cls-1{fill:none;stroke:#fff;stroke-miterlimit:10;stroke-width:6px;}.cls-2{fill:#fff;}</style></defs><title>light_reddit</title><circle class="cls-1" cx="100" cy="100" r="94.37"/><circle class="cls-2" cx="77.41" cy="108.44" r="9.48"/><path class="cls-2" d="M168.69,100.77c0-11.72-9.22-21.24-20.55-21.24a19.9,19.9,0,0,0-10.81,3.22c-9.76-5.67-22.05-9.18-35.48-9.67l7.74-22.22,16,3.84c-.05.53-.15,1-.15,1.58a16.18,16.18,0,1,0,2.43-8.38L105,42.42,94.27,73.13c-13.36.69-25.53,4.41-35.1,10.23.19-.14.36-.29.55-.42a20,20,0,0,0-11.15-3.42C37.23,79.52,28,89.05,28,100.76a21.26,21.26,0,0,0,10.31,18.3c2.52,21.9,28.62,39.19,60.41,39.19,32,0,58.24-17.52,60.46-39.62A21.37,21.37,0,0,0,168.69,100.77ZM141.49,47.4a8.89,8.89,0,1,1-8.9,8.89A8.9,8.9,0,0,1,141.49,47.4ZM48.56,86.66a12.5,12.5,0,0,1,4.58.91c-7.76,6.22-13,14-14.54,22.63a14.47,14.47,0,0,1-3.47-9.43C35.13,93,41.16,86.66,48.56,86.66Zm50.16,64.46c-29.52,0-53.53-15.92-53.53-35.5s24-35.5,53.53-35.5,53.52,15.92,53.52,35.5S128.24,151.12,98.72,151.12Zm59.95-41.69c-1.75-8.39-6.95-16-14.59-22a12.53,12.53,0,0,1,4.06-.74c7.39,0,13.42,6.33,13.42,14.11A14.58,14.58,0,0,1,158.67,109.43Z"/><circle class="cls-2" cx="118.17" cy="108.44" r="9.48"/><path class="cls-2" d="M116.64,129.51c-20.08,13.25-36.28.76-37,.2a3.57,3.57,0,0,0-4.48,5.55A39.59,39.59,0,0,0,98,142.65c6.68,0,14.41-1.8,22.57-7.19a3.57,3.57,0,1,0-3.93-6Z"/></svg>