<svg id="Слой_1" data-name="Слой 1" xmlns="http://www.w3.org/2000/svg" viewBox="0 0 200 200"><defs><style>.cls-1{fill:#a4a4a4;}</style></defs><title>Монтажная область 3</title><path class="cls-1" d="M100,26.62a72,72,0,1,0,51,21.16A72,72,0,0,0,100,26.62Zm40.76,83.78H97.56c-1,0-1.78-.51-2.79-.51-.82-.64-1.63-1.11-2.28-1.62L61.82,77.62a8.75,8.75,0,0,1-2.11-5.08,8.62,8.62,0,0,1,2.11-5.08,7.57,7.57,0,0,1,5.24-2.13,7.36,7.36,0,0,1,5.09,2.13l28.51,28.36h40.05a7.3,7.3,0,0,1,7.21,7.37h0a6.53,6.53,0,0,1-2.13,5.07,7.4,7.4,0,0,1-5.08,2.13ZM100,185.34h0a86.52,86.52,0,1,1,61.14-25.25A86.52,86.52,0,0,1,100,185.34Z"/></svg>