<svg id="Слой_1" data-name="Слой 1" xmlns="http://www.w3.org/2000/svg" viewBox="0 0 200 200"><defs><style>.cls-1{fill:#a4a4a4;}</style></defs><title>Монтажная область 1</title><g id="_Группа_" data-name=" Группа "><path id="_Составной_контур_" data-name=" Составной контур " class="cls-1" d="M161.26,39h-5a2.86,2.86,0,0,0-1.22.27V22.43a10.12,10.12,0,0,0-20.23,0h0V39.11l-.57-.06H64.74a3.24,3.24,0,0,0-.76.11V22.48a10.12,10.12,0,1,0-20.24,0V39.23a3,3,0,0,0-1-.2H37.69A17.48,17.48,0,0,0,20.26,56.52V167.87a17.46,17.46,0,0,0,17.43,17.47H161.26a17.48,17.48,0,0,0,17.44-17.47V56.52A17.5,17.5,0,0,0,161.26,39Zm-20.87-16.6a4.45,4.45,0,1,1,8.9-.42V53a4.45,4.45,0,0,1-8.9.42,2.94,2.94,0,0,1,0-.42Zm-91,0A4.45,4.45,0,1,1,58.3,22a2.94,2.94,0,0,1,0,.42V53a4.45,4.45,0,1,1-8.89.42,2.94,2.94,0,0,1,0-.42ZM172.5,167.87a11.31,11.31,0,0,1-11.24,11.3H37.69a11.31,11.31,0,0,1-11.28-11.3V56.52A11.31,11.31,0,0,1,37.69,45.17h2v6A14.09,14.09,0,0,0,67.82,52c0-.25,0-.49,0-.74v-6H131.1v6a14.08,14.08,0,0,0,28.16.74c0-.25,0-.49,0-.74v-6h2a11.32,11.32,0,0,1,11.29,11.32Z"/><path id="_Составной_контур_2" data-name=" Составной контур 2" class="cls-1" d="M163.55,74.05H35.87a3.26,3.26,0,0,0-3.08,3.4V161c0,6.46,4.75,11.71,10.59,11.71H156.05c5.83,0,10.57-5.25,10.57-11.71V77.45A3.25,3.25,0,0,0,163.55,74.05Zm-3.07,87a4.68,4.68,0,0,1-4.43,4.9H43.38A4.67,4.67,0,0,1,39,161V80.86H160.48Z"/><rect class="cls-1" x="48.76" y="94.06" width="23.15" height="23.15"/><rect class="cls-1" x="88.14" y="94.06" width="23.15" height="23.15"/><rect class="cls-1" x="127.52" y="94.06" width="23.15" height="23.15"/><rect class="cls-1" x="48.76" y="132.32" width="23.15" height="23.15"/><rect class="cls-1" x="88.14" y="132.32" width="23.15" height="23.15"/><rect class="cls-1" x="127.52" y="132.32" width="23.15" height="23.15"/></g></svg>