<svg id="Слой_1" data-name="Слой 1" xmlns="http://www.w3.org/2000/svg" viewBox="0 0 200 200"><defs><style>.cls-1{fill:none;stroke:#fff;stroke-miterlimit:10;stroke-width:6px;}.cls-2{fill:#fff;}</style></defs><title>git_w</title><circle class="cls-1" cx="99.97" cy="100" r="94.37"/><path class="cls-2" d="M100,193.34c-23,0-22.37-2.14-22.37-4.56,0-2.18-.09-9.4-.13-17.05-25.43,5.54-30.79-10.8-30.79-10.8-4.16-10.58-10.15-13.4-10.15-13.4-8.3-5.68.62-5.56.62-5.56,9.18.64,14,9.43,14,9.43,8.16,14,21.39,9.95,26.6,7.61.82-5.91,3.19-9.95,5.81-12.24C63.29,144.45,42,136.6,42,101.52a35.44,35.44,0,0,1,9.42-24.58c-1-2.3-4.08-11.61.89-24.23,0,0,7.67-2.46,25.14,9.39a86.53,86.53,0,0,1,45.78,0c17.44-11.85,25.11-9.39,25.11-9.39,5,12.62,1.84,21.93.9,24.23a35.43,35.43,0,0,1,9.4,24.58c0,35.17-21.38,42.91-41.74,45.18,3.28,2.84,6.2,8.41,6.2,17,0,4.6.21,8.23.19,15.58,0,10.24,5,13.48-23.24,14.11"/></svg>